<?xml version="1.0" encoding="utf-8"?>
<!-- Generator: Adobe Illustrator 15.1.0, SVG Export Plug-In . SVG Version: 6.00 Build 0)  -->
<!DOCTYPE svg PUBLIC "-//W3C//DTD SVG 1.1//EN" "http://www.w3.org/Graphics/SVG/1.1/DTD/svg11.dtd">
<svg version="1.1" id="Layer_1" xmlns="http://www.w3.org/2000/svg" xmlns:xlink="http://www.w3.org/1999/xlink" x="0px" y="0px"
	 width="127.894px" height="139.09px" viewBox="0 0 127.894 139.09" enable-background="new 0 0 127.894 139.09"
	 xml:space="preserve">
<path fill="#FFFFFF" d="M0,0c11.947,15.061,13.217,19.108,17.868,30.326c0.2-3.296,0.371-6.16-0.095-8.9
	c-0.115-0.674,0.19-0.685,0.597-0.241c3.561,3.891,84.3,92.409,84.3,92.409l-0.304,9.267l14.857,16.229l0.302-9.266l2.442,2.668
	l1.112-1.018l-2.442-2.669l9.257,0.517l-14.856-16.229l-9.257-0.516c0,0-80.739-88.519-84.3-92.409
	c-0.406-0.446-0.37-0.749,0.292-0.574c2.69,0.706,5.556,0.788,8.859,0.881C17.866,14.853,13.948,13.23,0,0 M115.745,127.878
	l-0.223,6.23l-1.221-1.333l0.223-6.23L115.745,127.878z M113.251,125.156l-0.223,6.23l-1.22-1.334l0.221-6.23L113.251,125.156z
	 M110.759,122.432l-0.223,6.23l-1.221-1.334l0.222-6.231L110.759,122.432z M108.266,119.709l-0.223,6.229l-1.221-1.334l0.222-6.23
	L108.266,119.709z M105.773,116.985l-0.222,6.23l-1.222-1.334l0.223-6.23L105.773,116.985z M115.635,125.528l6.226,0.329
	l1.221,1.334l-6.226-0.329L115.635,125.528z M113.142,122.804l6.226,0.328l1.223,1.334l-6.227-0.328L113.142,122.804z
	 M110.649,120.081l6.226,0.329l1.221,1.333l-6.226-0.328L110.649,120.081z M108.157,117.357l6.226,0.328l1.221,1.334l-6.227-0.328
	L108.157,117.357z M105.664,114.634l6.225,0.327l1.222,1.335l-6.226-0.328L105.664,114.634z"/>
</svg>
