<?xml version="1.0" encoding="utf-8"?>
<!-- Generator: Adobe Illustrator 15.1.0, SVG Export Plug-In . SVG Version: 6.00 Build 0)  -->
<!DOCTYPE svg PUBLIC "-//W3C//DTD SVG 1.1//EN" "http://www.w3.org/Graphics/SVG/1.1/DTD/svg11.dtd">
<svg version="1.1" id="Layer_1" xmlns="http://www.w3.org/2000/svg" xmlns:xlink="http://www.w3.org/1999/xlink" x="0px" y="0px"
	 width="181.727px" height="181.727px" viewBox="0 0 181.727 181.727" enable-background="new 0 0 181.727 181.727"
	 xml:space="preserve">
<g>
	<rect x="113.476" y="44.307" transform="matrix(0.7071 0.7071 -0.7071 0.7071 88.9788 -64.1939)" width="17" height="62"/>
	<rect x="128.885" y="60.217" transform="matrix(0.7071 0.7071 -0.7071 0.7071 104.8825 -70.7826)" width="18" height="61.999"/>
	<rect x="145.296" y="76.127" transform="matrix(0.7071 0.7071 -0.7071 0.7071 120.7922 -77.3727)" width="17.001" height="62"/>
	<rect x="66.1" y="28.75" transform="matrix(0.7071 -0.7071 0.7071 0.7071 -20.4 70.2505)" width="17" height="62"/>
	<rect x="81.509" y="12.841" transform="matrix(0.7071 -0.7071 0.7071 0.7071 -4.4903 76.8405)" width="18" height="61.999"/>
	<rect x="97.92" y="-3.07" transform="matrix(0.7071 -0.7071 0.7071 0.7071 11.4199 83.4309)" width="17" height="62"/>
	<rect x="51.25" y="75.42" transform="matrix(-0.7071 -0.7071 0.7071 -0.7071 26.7522 223.9207)" width="17" height="62"/>
	<rect x="35.694" y="59.864" transform="matrix(-0.7071 -0.7071 0.7071 -0.7071 11.1956 186.3648)" width="17" height="61.999"/>
	<rect x="19.43" y="43.6" transform="matrix(-0.7071 -0.7071 0.7071 -0.7071 -5.0713 147.099)" width="17.001" height="62"/>
	<rect x="98.627" y="90.976" transform="matrix(-0.7071 0.7071 -0.7071 -0.7071 269.1273 132.476)" width="17" height="62"/>
	<rect x="82.217" y="106.886" transform="matrix(-0.7071 0.7071 -0.7071 -0.7071 253.2189 170.8791)" width="18" height="61.999"/>
	<rect x="66.806" y="122.796" transform="matrix(-0.7071 0.7071 -0.7071 -0.7071 237.307 209.296)" width="17.001" height="62"/>
</g>
</svg>
