<?xml version="1.0" encoding="utf-8"?>
<!-- Generator: Adobe Illustrator 15.1.0, SVG Export Plug-In . SVG Version: 6.00 Build 0)  -->
<!DOCTYPE svg PUBLIC "-//W3C//DTD SVG 1.1//EN" "http://www.w3.org/Graphics/SVG/1.1/DTD/svg11.dtd">
<svg version="1.1" id="Layer_1" xmlns="http://www.w3.org/2000/svg" xmlns:xlink="http://www.w3.org/1999/xlink" x="0px" y="0px"
	 width="181.727px" height="181.727px" viewBox="0 0 181.727 181.727" enable-background="new 0 0 181.727 181.727"
	 xml:space="preserve">
<rect x="79.283" y="5.486" transform="matrix(-0.7071 0.7071 -0.7071 -0.7071 168.7389 -34.4679)" width="24.45" height="24.45"/>
<rect x="5.806" y="78.964" transform="matrix(-0.7071 0.7071 -0.7071 -0.7071 95.2587 142.9236)" width="24.45" height="24.45"/>
<path d="M92.302,43.289l-48.79,48.79l48.79,48.79l48.79-48.79L92.302,43.289z M93.01,126.02L58.361,91.372l33.941-33.941
	l34.648,34.648L93.01,126.02z"/>
<rect x="80.164" y="79.721" transform="matrix(0.7071 0.7071 -0.7071 0.7071 92.0773 -38.3992)" width="24.453" height="24.453"/>
<rect x="152.47" y="78.673" transform="matrix(-0.7071 0.7071 -0.7071 -0.7071 345.4268 38.7069)" width="24.452" height="24.452"/>
<rect x="78.992" y="152.151" transform="matrix(-0.7071 0.7071 -0.7071 -0.7071 271.9529 216.1019)" width="24.452" height="24.451"/>
<path d="M55.064,66.613c0,6.684-5.419,12.103-12.102,12.102c-6.684,0-12.103-5.417-12.103-12.102
	c0-6.684,5.419-12.102,12.103-12.102C49.646,54.511,55.064,59.929,55.064,66.613"/>
<path d="M79.638,42.164c0,6.751-5.473,12.224-12.225,12.225c-6.751,0-12.224-5.474-12.224-12.225
	c-0.001-6.752,5.473-12.225,12.224-12.225C74.165,29.938,79.638,35.412,79.638,42.164"/>
<path d="M128.541,42.163c0,6.752-5.474,12.226-12.226,12.226c-6.753,0-12.226-5.474-12.226-12.226s5.473-12.226,12.226-12.226
	S128.541,35.411,128.541,42.163"/>
<path d="M152.826,66.614c0,6.66-5.399,12.059-12.059,12.059c-6.661,0-12.06-5.399-12.06-12.059s5.399-12.059,12.06-12.059
	S152.826,59.954,152.826,66.614"/>
<path d="M152.825,115.351c0,6.752-5.474,12.226-12.226,12.226c-6.751,0-12.225-5.474-12.226-12.226
	c0.001-6.752,5.475-12.224,12.226-12.226C147.352,103.125,152.825,108.6,152.825,115.351"/>
<path d="M128.374,139.801c0,6.751-5.474,12.225-12.225,12.225s-12.224-5.473-12.224-12.225c0-6.751,5.473-12.225,12.225-12.225
	C122.9,127.576,128.374,133.05,128.374,139.801"/>
<path d="M79.516,140.091c0,6.752-5.474,12.228-12.225,12.228c-6.753,0-12.227-5.476-12.226-12.228
	c0-6.751,5.473-12.226,12.225-12.226S79.517,133.34,79.516,140.091"/>
<path d="M55.064,115.641c0,6.75-5.474,12.226-12.227,12.226c-6.751,0-12.225-5.474-12.224-12.226
	c-0.001-6.752,5.473-12.227,12.225-12.227S55.064,108.889,55.064,115.641"/>
</svg>
