<?xml version="1.0" encoding="utf-8"?>
<!-- Generator: Adobe Illustrator 15.1.0, SVG Export Plug-In . SVG Version: 6.00 Build 0)  -->
<!DOCTYPE svg PUBLIC "-//W3C//DTD SVG 1.1//EN" "http://www.w3.org/Graphics/SVG/1.1/DTD/svg11.dtd">
<svg version="1.1" id="Layer_1" xmlns="http://www.w3.org/2000/svg" xmlns:xlink="http://www.w3.org/1999/xlink" x="0px" y="0px"
	 width="181.727px" height="181.727px" viewBox="0 0 181.727 181.727" enable-background="new 0 0 181.727 181.727"
	 xml:space="preserve">
<polygon points="89.856,0.131 111.72,21.999 89.856,43.867 67.982,21.999 "/>
<polygon points="89.856,65.921 56.465,32.534 63.606,25.392 89.856,51.637 116.1,25.393 123.24,32.533 "/>
<polygon points="180.061,92.017 158.192,113.881 136.326,92.017 158.192,70.145 "/>
<polygon points="147.658,125.399 114.271,92.016 147.658,58.625 154.799,65.767 128.553,92.016 154.799,118.259 "/>
<polygon points="3.084,92.008 24.952,70.145 46.819,92.008 24.952,113.881 "/>
<polygon points="35.487,125.399 28.344,118.259 54.591,92.01 28.345,65.768 35.486,58.625 68.874,92.01 "/>
<path d="M51.453,44.349c4.897,0,8.866,3.969,8.866,8.866c0,4.893-3.969,8.862-8.866,8.862c-4.894,0-8.864-3.969-8.864-8.862
	C42.589,48.318,46.559,44.349,51.453,44.349"/>
<path d="M70.335,63.651c4.897,0,8.865,3.968,8.865,8.865c0,4.894-3.968,8.863-8.865,8.863c-4.895,0-8.864-3.969-8.864-8.863
	C61.471,67.619,65.44,63.651,70.335,63.651"/>
<path d="M89.215,82.953c4.896,0,8.865,3.969,8.865,8.865c0,4.895-3.969,8.862-8.865,8.862c-4.894,0-8.864-3.968-8.864-8.862
	C80.351,86.922,84.321,82.953,89.215,82.953"/>
<path d="M108.095,102.256c4.897,0,8.864,3.968,8.864,8.865c0,4.894-3.967,8.861-8.864,8.861c-4.894,0-8.863-3.968-8.863-8.861
	C99.231,106.224,103.201,102.256,108.095,102.256"/>
<path d="M126.977,121.558c4.896,0,8.865,3.969,8.865,8.866c0,4.894-3.969,8.861-8.865,8.861c-4.895,0-8.863-3.968-8.863-8.861
	C118.113,125.526,122.082,121.558,126.977,121.558"/>
<path d="M136.684,54.055c0,4.897-3.969,8.865-8.865,8.865c-4.894,0-8.863-3.968-8.863-8.865c0-4.894,3.97-8.864,8.863-8.864
	C132.715,45.191,136.684,49.161,136.684,54.055"/>
<path d="M117.381,72.935c0,4.898-3.968,8.866-8.865,8.866c-4.894,0-8.863-3.968-8.863-8.866c0-4.893,3.97-8.864,8.863-8.864
	C113.413,64.071,117.381,68.042,117.381,72.935"/>
<path d="M98.079,91.816c0,4.896-3.97,8.865-8.864,8.865c-4.896,0-8.864-3.969-8.864-8.865c0-4.894,3.968-8.863,8.864-8.863
	C94.109,82.954,98.079,86.922,98.079,91.816"/>
<path d="M78.778,110.698c0,4.896-3.97,8.864-8.865,8.864s-8.863-3.968-8.863-8.864c0-4.895,3.968-8.864,8.863-8.864
	S78.778,105.804,78.778,110.698"/>
<path d="M59.476,129.578c0,4.896-3.968,8.865-8.866,8.865c-4.893,0-8.862-3.969-8.862-8.865c0-4.894,3.969-8.863,8.862-8.863
	C55.508,120.715,59.476,124.685,59.476,129.578"/>
<polygon points="89.846,181.596 67.982,159.729 89.846,137.858 111.721,159.729 "/>
<polygon points="116.099,156.334 89.85,130.09 63.608,156.334 56.465,149.193 89.85,115.808 123.24,149.193 "/>
</svg>
