<?xml version="1.0" encoding="utf-8"?>
<!-- Generator: Adobe Illustrator 15.1.0, SVG Export Plug-In . SVG Version: 6.00 Build 0)  -->
<!DOCTYPE svg PUBLIC "-//W3C//DTD SVG 1.1//EN" "http://www.w3.org/Graphics/SVG/1.1/DTD/svg11.dtd">
<svg version="1.1" id="Layer_1" xmlns="http://www.w3.org/2000/svg" xmlns:xlink="http://www.w3.org/1999/xlink" x="0px" y="0px"
	 width="181.727px" height="181.727px" viewBox="0 0 181.727 181.727" enable-background="new 0 0 181.727 181.727"
	 xml:space="preserve">
<rect x="81.281" y="29.585" transform="matrix(-0.7071 -0.7072 0.7072 -0.7071 127.5735 131.5067)" width="19.488" height="19.488"/>
<rect x="81.281" y="63.868" transform="matrix(-0.7071 -0.7072 0.7072 -0.7071 103.3302 190.0292)" width="19.488" height="19.488"/>
<rect x="81.282" y="98.152" transform="matrix(-0.7071 -0.7071 0.7071 -0.7071 79.0907 248.5551)" width="19.488" height="19.489"/>
<rect x="81.281" y="132.436" transform="matrix(-0.707 -0.7072 0.7072 -0.707 54.836 307.0776)" width="19.489" height="19.488"/>
<rect x="132.705" y="81.012" transform="matrix(0.7072 -0.7071 0.7071 0.7072 -22.4551 127.2968)" width="19.488" height="19.489"/>
<rect x="98.42" y="81.013" transform="matrix(0.7072 -0.7071 0.7071 0.7072 -32.4951 103.0556)" width="19.488" height="19.488"/>
<rect x="64.137" y="81.012" transform="matrix(0.7071 -0.7071 0.7071 0.7071 -42.5352 78.8196)" width="19.488" height="19.489"/>
<rect x="29.854" y="81.013" transform="matrix(0.7072 -0.7071 0.7071 0.7072 -52.5743 54.5753)" width="19.488" height="19.488"/>
<polygon points="158.654,70.92 178.696,90.959 158.656,111.004 "/>
<polygon points="23.389,111.004 3.351,90.966 23.392,70.921 "/>
<polygon points="70.98,23.331 91.02,3.289 111.065,23.332 "/>
<polygon points="111.065,158.594 91.027,178.636 70.98,158.596 "/>
<polygon points="107.131,76.34 107.128,33.064 116.385,33.064 116.387,67.083 150.402,67.082 150.402,76.339 "/>
<polygon points="107.248,148.861 107.246,105.589 150.522,105.586 150.522,114.842 116.504,114.844 116.506,148.861 "/>
<polygon points="31.524,76.339 31.524,67.083 65.545,67.08 65.543,33.065 74.799,33.065 74.802,76.337 "/>
<polygon points="150.522,61.407 122.182,61.41 122.179,33.063 "/>
<polygon points="122.18,147.664 122.178,119.323 150.522,119.321 "/>
<polygon points="61.547,33.064 61.549,61.404 33.203,61.408 "/>
<polygon points="32.92,119.321 61.262,119.318 61.266,147.666 "/>
<polygon points="65.544,148.862 65.54,114.842 31.525,114.844 31.525,105.586 74.798,105.586 74.801,148.862 "/>
</svg>
